<svg id="cart" width="25" height="25" viewBox="0 0 25 25" fill="none" xmlns="http://www.w3.org/2000/svg">
<g clip-path="url(#clip0_21_26)">
<path d="M23.3425 24.1783L21.4424 6.08385C21.4026 5.70505 21.0833 5.41742 20.7024 5.41742H17.1311V4.60318C17.1311 2.06507 15.066 -7.62939e-06 12.5279 -7.62939e-06C9.98957 -7.62939e-06 7.92449 2.06507 7.92449 4.60318V5.41742H4.35317C3.97227 5.41742 3.65299 5.70505 3.61312 6.08385L1.71302 24.1783C1.69109 24.3879 1.75918 24.5971 1.90013 24.7539C2.04128 24.9105 2.24231 24.9999 2.45307 24.9999H22.6023C22.8132 24.9999 23.0143 24.9105 23.1552 24.7539C23.2965 24.5971 23.3644 24.3879 23.3425 24.1783ZM9.4126 4.60318C9.4126 2.88561 10.8101 1.4881 12.5279 1.4881C14.2454 1.4881 15.6429 2.88561 15.6429 4.60318V5.41742H9.4126V4.60318ZM3.27934 23.5118L5.02322 6.90553H7.92449V8.54528C7.92449 8.95612 8.2577 9.28933 8.66854 9.28933C9.07938 9.28933 9.4126 8.95612 9.4126 8.54528V6.90553H15.6429V8.54528C15.6429 8.95612 15.9762 9.28933 16.387 9.28933C16.7978 9.28933 17.1311 8.95612 17.1311 8.54528V6.90553H20.0323L21.7762 23.5118H3.27934Z" fill="black"/>
</g>
<defs>
<clipPath id="clip0_21_26">
<rect width="25" height="25" fill="white"/>
</clipPath>
</defs>
</svg>
