<svg id="facebook" width="15" height="16" viewBox="0 0 15 16" fill="none" xmlns="http://www.w3.org/2000/svg">
<g clip-path="url(#clip0_869_1920)">
<path d="M8.51273 14.9999H6.10592C5.7039 14.9999 5.37688 14.6729 5.37688 14.2709V8.8422H3.97269C3.57068 8.8422 3.24365 8.51506 3.24365 8.11316V5.78696C3.24365 5.38494 3.57068 5.05792 3.97269 5.05792H5.37688V3.89304C5.37688 2.73802 5.73956 1.75534 6.4256 1.05141C7.11474 0.344274 8.07781 -0.0294189 9.2107 -0.0294189L11.0463 -0.0264377C11.4476 -0.0257497 11.774 0.301275 11.774 0.702602V2.86243C11.774 3.26444 11.4471 3.59147 11.0452 3.59147L9.80936 3.59193C9.43246 3.59193 9.33649 3.66749 9.31596 3.69065C9.28213 3.72907 9.24189 3.83765 9.24189 4.1375V5.0578H10.9523C11.0811 5.0578 11.2059 5.08956 11.3131 5.14942C11.5444 5.27865 11.6881 5.523 11.6881 5.78707L11.6872 8.11328C11.6872 8.51506 11.3602 8.84209 10.9582 8.84209H9.24189V14.2709C9.24189 14.6729 8.91475 14.9999 8.51273 14.9999ZM6.25796 14.1189H8.36069V8.44775C8.36069 8.17932 8.57912 7.961 8.84744 7.961H10.8061L10.8069 5.939H8.84733C8.57901 5.939 8.36069 5.72068 8.36069 5.45225V4.1375C8.36069 3.79328 8.39566 3.40181 8.65549 3.10758C8.96944 2.75189 9.46422 2.71084 9.80913 2.71084L10.8929 2.71038V0.854418L9.21001 0.851666C7.38936 0.851666 6.25796 2.01712 6.25796 3.89304V5.45225C6.25796 5.72057 6.03964 5.939 5.77133 5.939H4.12474V7.961H5.77133C6.03964 7.961 6.25796 8.17932 6.25796 8.44775V14.1189ZM11.0445 0.854647H11.0446H11.0445Z" fill="black"/>
</g>
<defs>
<clipPath id="clip0_869_1920">
<rect width="15" height="15.0294" fill="white"/>
</clipPath>
</defs>
</svg>
