<svg id="instagram" width="15" height="15" viewBox="0 0 15 15" fill="none" xmlns="http://www.w3.org/2000/svg">
<g clip-path="url(#clip0_869_1916)">
<path d="M2.96875 15H12.0312C13.6681 15 15 13.6681 15 12.0312V2.96875C15 1.33188 13.6681 0 12.0312 0H2.96875C1.33188 0 0 1.33188 0 2.96875V12.0312C0 13.6681 1.33188 15 2.96875 15ZM0.9375 2.96875C0.9375 1.84875 1.84875 0.9375 2.96875 0.9375H12.0312C13.1512 0.9375 14.0625 1.84875 14.0625 2.96875V12.0312C14.0625 13.1512 13.1512 14.0625 12.0312 14.0625H2.96875C1.84875 14.0625 0.9375 13.1512 0.9375 12.0312V2.96875Z" fill="black"/>
<path d="M7.49995 11.3312C9.61245 11.3312 11.3312 9.61245 11.3312 7.49995C11.3312 5.38745 9.61245 3.6687 7.49995 3.6687C5.38745 3.6687 3.6687 5.38745 3.6687 7.49995C3.6687 9.61245 5.38745 11.3312 7.49995 11.3312ZM7.49995 4.6062C9.09558 4.6062 10.3937 5.90433 10.3937 7.49995C10.3937 9.09558 9.09558 10.3937 7.49995 10.3937C5.90433 10.3937 4.6062 9.09558 4.6062 7.49995C4.6062 5.90433 5.90433 4.6062 7.49995 4.6062Z" fill="black"/>
<path d="M11.4738 4.60132C12.09 4.60132 12.5544 4.13882 12.5544 3.5257C12.5544 2.88632 12.0657 2.45007 11.4744 2.45007C10.8582 2.45007 10.3938 2.91257 10.3938 3.5257C10.3938 4.16382 10.88 4.60132 11.4738 4.60132ZM11.5844 3.42257C11.7819 3.59695 11.3313 3.80882 11.3313 3.52632C11.3313 3.35757 11.5607 3.40132 11.5844 3.42257Z" fill="black"/>
</g>
<defs>
<clipPath id="clip0_869_1916">
<rect width="15" height="15" fill="white"/>
</clipPath>
</defs>
</svg>
