<svg id="tape" width="25" height="25" viewBox="0 0 25 25" fill="none" xmlns="http://www.w3.org/2000/svg">
<path d="M7.25817 10.4077C8.10919 10.5617 9.23688 10.6465 10.4337 10.6465C11.6304 10.6465 12.7582 10.5617 13.6091 10.4077C14.6704 10.2156 15.1436 9.95239 15.1436 9.5542C15.1436 9.15601 14.6704 8.89277 13.6091 8.70073C12.7582 8.54673 11.6304 8.46191 10.4337 8.46191C9.23688 8.46191 8.10919 8.54673 7.25817 8.70073C6.19698 8.89277 5.72369 9.15601 5.72369 9.5542C5.72369 9.95239 6.19698 10.2156 7.25817 10.4077V10.4077ZM10.4337 9.04785C12.7323 9.04785 14.1073 9.35132 14.4841 9.5542C14.1073 9.75708 12.7323 10.0605 10.4337 10.0605C8.13502 10.0605 6.76002 9.75708 6.38326 9.5542C6.76002 9.35132 8.13483 9.04785 10.4337 9.04785V9.04785Z" fill="black"/>
<path d="M24.414 11.0437H20.5743V9.5542C20.5743 9.18013 20.263 8.86509 19.6227 8.59106C19.1064 8.37012 18.3752 8.17314 17.4492 8.00552C15.5725 7.66606 13.081 7.47876 10.4336 7.47876C7.78617 7.47876 5.29472 7.66606 3.41791 8.00552C2.49189 8.17314 1.76064 8.37012 1.24443 8.59102C0.621673 8.85752 0.311078 9.16299 0.294427 9.52363C0.293372 9.53377 0.292834 9.54396 0.292816 9.55415V15.4459C0.292834 15.4561 0.293372 15.4663 0.294427 15.4764C0.311078 15.8371 0.621576 16.1426 1.24443 16.409C1.76064 16.6299 2.49189 16.8269 3.41791 16.9945C5.29462 17.3342 7.78613 17.5213 10.4335 17.5213H24.414C24.4917 17.5213 24.5662 17.4904 24.6212 17.4355C24.6761 17.3805 24.707 17.306 24.707 17.2283V11.3367C24.707 11.259 24.6761 11.1845 24.6212 11.1296C24.5662 11.0746 24.4917 11.0437 24.414 11.0437V11.0437ZM3.52241 8.58208C5.36572 8.24844 7.82016 8.0645 10.4336 8.0645C13.047 8.0645 15.5015 8.24824 17.3448 8.58208C19.5027 8.9727 19.9883 9.42617 19.9883 9.5542C19.9883 9.68223 19.5027 10.1358 17.3448 10.5264C15.5015 10.86 13.0471 11.0439 10.4336 11.0439C7.82011 11.0439 5.36572 10.8602 3.52241 10.5264C3.19111 10.4664 2.89965 10.405 2.64286 10.3435C2.63705 10.3419 2.63119 10.3404 2.62519 10.3393C1.22407 10.0014 0.878851 9.66216 0.878851 9.5542C0.878851 9.42617 1.3645 8.97266 3.52241 8.58208V8.58208ZM19.9883 10.335V11.0436H17.7613C18.5406 10.8894 19.166 10.7126 19.6227 10.5172C19.7482 10.4642 19.8703 10.4034 19.9883 10.3352V10.335ZM24.121 16.9354H22.5225V14.1114C22.5225 14.0337 22.4917 13.9592 22.4367 13.9042C22.3818 13.8493 22.3073 13.8184 22.2296 13.8184C22.1519 13.8184 22.0774 13.8493 22.0224 13.9042C21.9675 13.9592 21.9366 14.0337 21.9366 14.1114V16.9354H10.4336C7.82016 16.9354 5.36572 16.7517 3.52241 16.4178C1.3645 16.0272 0.878851 15.5737 0.878851 15.4457V10.3352C0.996835 10.4035 1.11896 10.4644 1.24453 10.5174C1.57976 10.6555 1.92472 10.7688 2.2766 10.8562V13.712C2.27546 13.7897 2.30436 13.8648 2.35726 13.9216C2.41017 13.9785 2.483 14.0127 2.56054 14.0171C2.59977 14.0183 2.63884 14.0117 2.67543 13.9975C2.71202 13.9833 2.7454 13.9619 2.77357 13.9346C2.80173 13.9073 2.82412 13.8746 2.83941 13.8384C2.85469 13.8023 2.86256 13.7634 2.86254 13.7242V10.9937C3.03923 11.0313 3.22439 11.0677 3.41801 11.1029C3.57914 11.1322 3.7448 11.1602 3.91498 11.1869V12.4013C3.91383 12.479 3.94276 12.5542 3.99572 12.611C4.04868 12.6679 4.12158 12.7021 4.19916 12.7064C4.23839 12.7077 4.27746 12.701 4.31405 12.6868C4.35065 12.6726 4.38402 12.6512 4.41219 12.6239C4.44036 12.5966 4.46275 12.5639 4.47803 12.5277C4.49332 12.4916 4.50118 12.4527 4.50116 12.4135V11.2729C4.83876 11.3188 5.18954 11.3604 5.55351 11.3978V14.0846C5.55236 14.1623 5.58126 14.2374 5.63417 14.2942C5.68708 14.3511 5.7599 14.3853 5.83744 14.3897C5.87667 14.391 5.91574 14.3843 5.95233 14.3701C5.98893 14.3559 6.0223 14.3345 6.05047 14.3072C6.07864 14.2799 6.10103 14.2472 6.11631 14.211C6.1316 14.1749 6.13946 14.136 6.13945 14.0968V11.4533C6.4817 11.4831 6.83251 11.5092 7.19189 11.5317V12.9025C7.19073 12.9802 7.21962 13.0553 7.27253 13.1121C7.32544 13.169 7.39828 13.2032 7.47582 13.2076C7.51505 13.2088 7.55412 13.2021 7.59071 13.188C7.62731 13.1738 7.66068 13.1524 7.68885 13.1251C7.71702 13.0977 7.73941 13.065 7.75469 13.0289C7.76998 12.9927 7.77784 12.9539 7.77782 12.9146V11.5648C8.12288 11.5821 8.47367 11.5959 8.83022 11.6063V14.3031C8.82906 14.3807 8.85795 14.4558 8.91086 14.5127C8.96377 14.5696 9.03661 14.6038 9.11415 14.6082C9.15338 14.6094 9.19245 14.6027 9.22904 14.5885C9.26564 14.5744 9.29901 14.553 9.32718 14.5257C9.35535 14.4983 9.37774 14.4656 9.39302 14.4295C9.40831 14.3933 9.41617 14.3545 9.41615 14.3152V11.6203C9.75216 11.6265 10.0914 11.6297 10.4338 11.6297H10.4685V12.8382C10.4674 12.9159 10.4963 12.991 10.5492 13.0479C10.6021 13.1047 10.6749 13.1389 10.7525 13.1434C10.7917 13.1446 10.8308 13.1379 10.8674 13.1237C10.904 13.1095 10.9373 13.0881 10.9655 13.0608C10.9937 13.0335 11.0161 13.0008 11.0314 12.9646C11.0466 12.9285 11.0545 12.8896 11.0545 12.8504V11.6297H12.1069V14.4764C12.1057 14.554 12.1346 14.6291 12.1875 14.686C12.2404 14.7429 12.3133 14.7771 12.3908 14.7815C12.43 14.7827 12.4691 14.776 12.5057 14.7618C12.5423 14.7477 12.5757 14.7263 12.6038 14.6989C12.632 14.6716 12.6544 14.6389 12.6697 14.6028C12.685 14.5666 12.6928 14.5278 12.6928 14.4885V11.6297H13.7451V12.8382C13.7439 12.9159 13.7728 12.991 13.8257 13.0478C13.8786 13.1047 13.9514 13.1389 14.0289 13.1434C14.0682 13.1446 14.1073 13.1379 14.1439 13.1237C14.1805 13.1095 14.2138 13.0882 14.242 13.0608C14.2702 13.0335 14.2926 13.0008 14.3079 12.9646C14.3231 12.9285 14.331 12.8896 14.331 12.8504V11.6297H15.3834V14.4764C15.3822 14.554 15.4111 14.6291 15.464 14.686C15.5169 14.7429 15.5898 14.7771 15.6673 14.7815C15.7066 14.7827 15.7456 14.776 15.7822 14.7618C15.8188 14.7477 15.8522 14.7263 15.8804 14.6989C15.9085 14.6716 15.9309 14.6389 15.9462 14.6028C15.9615 14.5666 15.9693 14.5278 15.9693 14.4885V11.6297H17.0214V12.8382C17.0203 12.9159 17.0492 12.991 17.1021 13.0478C17.155 13.1047 17.2278 13.1389 17.3053 13.1434C17.3445 13.1446 17.3836 13.1379 17.4202 13.1237C17.4568 13.1095 17.4902 13.0882 17.5184 13.0608C17.5465 13.0335 17.5689 13.0008 17.5842 12.9646C17.5995 12.9285 17.6074 12.8896 17.6074 12.8504V11.6297H18.6598V14.4764C18.6586 14.554 18.6875 14.6291 18.7404 14.686C18.7933 14.7429 18.8661 14.7771 18.9437 14.7815C18.9829 14.7827 19.022 14.776 19.0586 14.7618C19.0952 14.7477 19.1285 14.7263 19.1567 14.6989C19.1849 14.6716 19.2073 14.6389 19.2226 14.6028C19.2378 14.5666 19.2457 14.5278 19.2457 14.4885V11.6297H20.298V12.8382C20.2969 12.9159 20.3258 12.991 20.3787 13.0478C20.4316 13.1047 20.5044 13.1389 20.582 13.1434C20.6212 13.1446 20.6603 13.1379 20.6969 13.1237C20.7335 13.1095 20.7668 13.0881 20.795 13.0608C20.8232 13.0335 20.8456 13.0008 20.8608 12.9646C20.8761 12.9285 20.884 12.8896 20.884 12.8504V11.6297H21.9364V12.6954C21.9364 12.7731 21.9673 12.8476 22.0222 12.9025C22.0772 12.9575 22.1517 12.9883 22.2294 12.9883C22.3071 12.9883 22.3816 12.9575 22.4365 12.9025C22.4915 12.8476 22.5224 12.7731 22.5224 12.6954V11.6297H24.121V16.9354Z" fill="black"/>
</svg>
